<svg width="124" height="124" viewBox="0 0 124 124" fill="none" xmlns="http://www.w3.org/2000/svg">
<g filter="url(#filter0_d_1_1000)">
<rect x="40" y="77" width="44" height="44" rx="22" transform="rotate(-90 40 77)" fill="white" shape-rendering="crispEdges"/>
<path d="M58.4035 49.651C58.2493 49.4928 58.2526 49.2395 58.4109 49.0854L59.2521 48.2659C59.4103 48.1117 59.6635 48.115 59.8177 48.2732L66.1483 54.7713C66.3024 54.9295 66.2991 55.1828 66.1409 55.3369L59.6428 61.6675C59.4846 61.8217 59.2314 61.8184 59.0772 61.6601L58.2577 60.8189C58.1035 60.6607 58.1068 60.4074 58.2651 60.2533L63.3489 55.3005C63.5071 55.1463 63.5105 54.8931 63.3563 54.7348L58.4035 49.651Z" fill="#545D6A"/>
</g>
<defs>
<filter id="filter0_d_1_1000" x="0" y="0" width="124" height="124" filterUnits="userSpaceOnUse" color-interpolation-filters="sRGB">
<feFlood flood-opacity="0" result="BackgroundImageFix"/>
<feColorMatrix in="SourceAlpha" type="matrix" values="0 0 0 0 0 0 0 0 0 0 0 0 0 0 0 0 0 0 127 0" result="hardAlpha"/>
<feOffset dy="7"/>
<feGaussianBlur stdDeviation="20"/>
<feComposite in2="hardAlpha" operator="out"/>
<feColorMatrix type="matrix" values="0 0 0 0 0.0745098 0 0 0 0 0.305882 0 0 0 0 0.607843 0 0 0 0.1 0"/>
<feBlend mode="normal" in2="BackgroundImageFix" result="effect1_dropShadow_1_1000"/>
<feBlend mode="normal" in="SourceGraphic" in2="effect1_dropShadow_1_1000" result="shape"/>
</filter>
</defs>
</svg>
