<svg width="124" height="124" viewBox="0 0 124 124" fill="none" xmlns="http://www.w3.org/2000/svg">
<g filter="url(#filter0_d_1_1596)">
<rect width="44" height="44" rx="22" transform="matrix(0 -1 -1 0 84 77)" fill="white" shape-rendering="crispEdges"/>
<path d="M65.5965 49.651C65.7507 49.4928 65.7474 49.2395 65.5891 49.0854L64.7479 48.2659C64.5897 48.1117 64.3365 48.115 64.1823 48.2732L57.8517 54.7713C57.6976 54.9295 57.7009 55.1828 57.8591 55.3369L64.3572 61.6675C64.5154 61.8217 64.7686 61.8184 64.9228 61.6601L65.7423 60.8189C65.8965 60.6607 65.8932 60.4074 65.7349 60.2533L60.6511 55.3005C60.4929 55.1463 60.4895 54.8931 60.6437 54.7348L65.5965 49.651Z" fill="#545D6A"/>
</g>
<defs>
<filter id="filter0_d_1_1596" x="0" y="0" width="124" height="124" filterUnits="userSpaceOnUse" color-interpolation-filters="sRGB">
<feFlood flood-opacity="0" result="BackgroundImageFix"/>
<feColorMatrix in="SourceAlpha" type="matrix" values="0 0 0 0 0 0 0 0 0 0 0 0 0 0 0 0 0 0 127 0" result="hardAlpha"/>
<feOffset dy="7"/>
<feGaussianBlur stdDeviation="20"/>
<feComposite in2="hardAlpha" operator="out"/>
<feColorMatrix type="matrix" values="0 0 0 0 0.0745098 0 0 0 0 0.305882 0 0 0 0 0.607843 0 0 0 0.1 0"/>
<feBlend mode="normal" in2="BackgroundImageFix" result="effect1_dropShadow_1_1596"/>
<feBlend mode="normal" in="SourceGraphic" in2="effect1_dropShadow_1_1596" result="shape"/>
</filter>
</defs>
</svg>
